# xmcd
#
# Track frame offsets:
#	150
#	18034
#	36294
#	54247
#	71449
#	88379
#	107609
#	134113
#	168552
#	182422
#	196231
#	213371
#	230554
#	247024
#	263917
#	283529
#	312612
#	333021
#
# Disc length: 4677
#
# Revision: 2
# Processed by: cddbd v1.5.1PL0 Copyright (c) Steve Scherf et al.
# Submitted via: Easy CD Ripper v2.30
# Normalized: r1:TSWAP
#
DISCID=05124312
DTITLE=Various Artist - Compilation 1A
DYEAR=2003
DGENRE=Contemporary C
TTITLE0=Vanessa Paradis - Joe le taxi
TTITLE1=Van Hallen - Jump
TTITLE2=Toto - Hold the line
TTITLE3=The underdog project - Summerjam
TTITLE4=Stevie Wonder - Part time lover
TTITLE5=Stephanie de Monaco - Ouragan
TTITLE6=Kool and the gang - Fresh
TTITLE7=Propaganda - Duel
TTITLE8=Afric Simone - Sha-la-la
TTITLE9=P.Lion - Happy children
TTITLE10=Nik Kershaw - The riddle
TTITLE11=Moloko - Forever more
TTITLE12=Robert Miles - Chidlren
TTITLE13=Londonbeat - I've been thinking about you
TTITLE14=Lionel Ritchie - All night long
TTITLE15=Gerry Rafferty - Baker street
TTITLE16=Kiss - I was made for loving you
TTITLE17=Johnn Lennon - Just like starting over
EXTD=beauti-wonder-full
EXTT0=A mine beautifull compilation
EXTT1=A mine beautifull compilation
EXTT2=A mine beautifull compilation
EXTT3=A mine beautifull compilation
EXTT4=A mine beautifull compilation
EXTT5=A mine beautifull compilation
EXTT6=A mine beautifull compilation
EXTT7=A mine beautifull compilation
EXTT8=A mine beautifull compilation
EXTT9=A mine beautifull compilation
EXTT10=A mine beautifull compilation
EXTT11=A mine beautifull compilation
EXTT12=A mine beautifull compilation
EXTT13=A mine beautifull compilation
EXTT14=A mine beautifull compilation
EXTT15=A mine beautifull compilation
EXTT16=A mine beautifull compilation
EXTT17=A mine beautifull compilation
PLAYORDER=
